<svg xmlns="http://www.w3.org/2000/svg" version="1.1" xmlns:xlink="http://www.w3.org/1999/xlink" width="512" height="512" x="0" y="0" viewBox="0 0 512 512" style="enable-background:new 0 0 512 512" xml:space="preserve"><g><linearGradient id="a" x1="256" x2="256" y1="512" y2="0" gradientUnits="userSpaceOnUse"><stop stop-opacity="1" stop-color="#ffffff" offset="0"></stop><stop stop-opacity="1" stop-color="#ffffff" offset="1"></stop></linearGradient><path fill="url(#a)" d="M126.63 176.718c6.469 5.175 15.91 4.125 21.083-2.343L256 39.012l108.287 135.363c5.191 6.489 14.632 7.502 21.083 2.343 6.469-5.175 7.519-14.615 2.343-21.083l-120-150.005a14.998 14.998 0 0 0-23.426 0l-120 150.005c-5.176 6.469-4.126 15.908 2.343 21.083zm141.083 25.911a15 15 0 0 0-23.426 0l-120 150A14.999 14.999 0 0 0 136 377h45v120c0 8.284 6.716 15 15 15h120c8.284 0 15-6.716 15-15V377h45a15.002 15.002 0 0 0 11.713-24.371zM316 347c-8.284 0-15 6.716-15 15v120h-90V362c0-8.284-6.716-15-15-15h-28.791L256 236.012 344.791 347zm-48.287-241.42a14.998 14.998 0 0 0-23.426 0l-120 150.003c-5.176 6.469-4.126 15.908 2.343 21.083s15.91 4.125 21.083-2.343L256 138.962l108.287 135.361c5.191 6.489 14.632 7.502 21.083 2.343 6.469-5.175 7.519-14.615 2.343-21.083z" opacity="1" data-original="url(#a)"></path></g></svg>