<?xml version="1.0" encoding="UTF-8"?>
<svg id="DP-rest-menu-logo" xmlns="http://www.w3.org/2000/svg" xmlns:xlink="http://www.w3.org/1999/xlink" version="1.1" viewBox="0 0 100 100">
  <defs>
    <style>
      .cls-1 {
        fill: url(#Degradado_sin_nombre_10);
      }

      .cls-1, .cls-2 {
        stroke-width: 0px;
      }

      .cls-2 {
        fill: #fff;
      }
    </style>
    <linearGradient id="Degradado_sin_nombre_10" data-name="Degradado sin nombre 10" x1="1.1" y1="98.9" x2="98.8" y2="1.2" gradientUnits="userSpaceOnUse">
      <stop offset="0" stop-color="#4e6d5c"/>
      <stop offset="1" stop-color="#95d2b3"/>
    </linearGradient>
  </defs>
  <rect class="cls-1" x="0" y="0" width="100" height="100" rx="50" ry="50"/>
  <g id="icono">
    <path class="cls-2" d="M75.6,19.8h-43.1c-.8,0-1.5.7-1.5,1.5s.7,1.5,1.5,1.5h43.1c.8,0,1.5.7,1.5,1.5v60.1c0,.8-.7,1.5-1.5,1.5H23c-.8,0-1.5-.7-1.5-1.5V23c0-2.1,1.4-3.9,3.5-4.3l42.5-9.9c.8-.2,1.6.3,1.8,1.1v6.1c0,.8.7,1.5,1.5,1.5s1.4-.7,1.5-1.5v-5.7c0-2.5-2.1-4.5-4.5-4.5s-.7,0-.9,0L24.3,15.8c-3.4.8-5.7,3.8-5.7,7.2v61.2c0,2.4,2,4.4,4.4,4.4h52.6c2.4,0,4.4-2,4.4-4.4V24.2c0-2.4-2-4.4-4.4-4.4Z"/>
    <path class="cls-2" d="M31.4,28.6c-.8,0-1.5.7-1.5,1.5v13c0,.7.2,1.4.6,2l3.5,5.5c.4.6.6,1.3.5,2l-2,21.1c-.4,8.3,11.9,8.4,11.6,0l-2-21.1c0-.7,0-1.4.5-2l3.5-5.5c.4-.6.6-1.2.6-2v-13c0-.8-.7-1.5-1.5-1.5s-1.5.7-1.5,1.5v13s0,.3,0,.4l-3.5,5.5c-.8,1.1-1,2.5-.9,3.9l2,21.1c0,1.6-1,2.9-2.6,3-1.6,0-2.9-1-3-2.6v-.5l2-21.1c0-1.3-.2-2.7-.9-3.9l-3.5-5.5s0-.3,0-.4v-13c0-.8-.7-1.5-1.5-1.5h0,0Z"/>
    <path class="cls-2" d="M37.4,41.1v-10.9c0-.8-.7-1.5-1.5-1.5s-1.4.7-1.5,1.5v10.9c0,.8.7,1.5,1.5,1.5s1.4-.7,1.5-1.5Z"/>
    <path class="cls-2" d="M42.1,41.1v-10.9c0-.8-.7-1.5-1.5-1.5s-1.4.7-1.5,1.5v10.9c0,.8.7,1.5,1.5,1.5s1.4-.7,1.5-1.5Z"/>
    <path class="cls-2" d="M55.3,33.9c1.3-2.3,4.2-3.1,6.6-2,.8.4,1.6,0,2-.7.4-.8,0-1.6-.7-2-3.8-1.9-8.4-.5-10.5,3.2-3.5,6.2-2.4,14,2.9,18.8l-1.9,20.5c-.3,2.6.7,5.2,2.5,7,4.4,4,9.6-1.3,9.4-6.2v-.8l-1.9-20.6c4.5-4.2,6-10.7,3.9-16.5-.3-.8-1.1-1.1-1.9-.8s-1.1,1.1-.8,1.9c1.7,4.6.5,9.8-3.1,13.2-.8.7-1.1,1.6-1,2.6l1.9,20.5v.6c0,2.2-1.9,6-4.3,4-1.2-1.2-1.9-2.9-1.7-4.6l1.9-20.5c0-.9-.3-1.9-1-2.5-4.1-3.9-5.1-10.2-2.3-15h0Z"/>
  </g>
</svg>