<?xml version="1.0" encoding="UTF-8"?>
<svg id="Capa_1" data-name="Capa 1" xmlns="http://www.w3.org/2000/svg" version="1.1" viewBox="0 0 512 341.3">
  <defs>
    <style>
      .cls-1 {
        fill: #0052b4;
      }

      .cls-1, .cls-2, .cls-3 {
        stroke-width: 0px;
      }

      .cls-2 {
        fill: #d80027;
      }

      .cls-3 {
        fill: #f0f0f0;
      }
    </style>
  </defs>
  <rect class="cls-3" y="0" width="512" height="341.3"/>
  <polygon class="cls-2" points="288 0 224 0 224 138.7 0 138.7 0 202.7 224 202.7 224 341.3 288 341.3 288 202.7 512 202.7 512 138.7 288 138.7 288 0"/>
  <g>
    <polygon class="cls-1" points="393.8 230 512 295.7 512 230 393.8 230"/>
    <polygon class="cls-1" points="311.7 230 512 341.3 512 309.9 368.3 230 311.7 230"/>
    <polygon class="cls-1" points="458.6 341.3 311.7 259.7 311.7 341.3 458.6 341.3"/>
  </g>
  <polygon class="cls-3" points="311.7 230 512 341.3 512 309.9 368.3 230 311.7 230"/>
  <polygon class="cls-2" points="311.7 230 512 341.3 512 309.9 368.3 230 311.7 230"/>
  <g>
    <polygon class="cls-1" points="90.3 230 0 280.2 0 230 90.3 230"/>
    <polygon class="cls-1" points="200.3 244.2 200.3 341.3 25.5 341.3 200.3 244.2"/>
  </g>
  <polygon class="cls-2" points="143.7 230 0 309.9 0 341.3 0 341.3 200.3 230 143.7 230"/>
  <g>
    <polygon class="cls-1" points="118.2 111.3 0 45.6 0 111.3 118.2 111.3"/>
    <polygon class="cls-1" points="200.3 111.3 0 0 0 31.5 143.7 111.3 200.3 111.3"/>
    <polygon class="cls-1" points="53.4 0 200.3 81.7 200.3 0 53.4 0"/>
  </g>
  <polygon class="cls-3" points="200.3 111.3 0 0 0 31.5 143.7 111.3 200.3 111.3"/>
  <polygon class="cls-2" points="200.3 111.3 0 0 0 31.5 143.7 111.3 200.3 111.3"/>
  <g>
    <polygon class="cls-1" points="421.7 111.3 512 61.1 512 111.3 421.7 111.3"/>
    <polygon class="cls-1" points="311.7 97.2 311.7 0 486.5 0 311.7 97.2"/>
  </g>
  <polygon class="cls-2" points="368.3 111.3 512 31.5 512 0 512 0 311.7 111.3 368.3 111.3"/>
</svg>