<svg xmlns="http://www.w3.org/2000/svg" version="1.1" xmlns:xlink="http://www.w3.org/1999/xlink" width="512" height="512" x="0" y="0" viewBox="0 0 20 19.996" style="enable-background:new 0 0 512 512" xml:space="preserve" class=""><g><g stroke-linecap="round" stroke-linejoin="round"><path d="M10 0c-.81.046-1.445.253-1.916.74L.304 8.279a1 1 0 0 0 1.393 1.437l7.75-7.508a.826.826 0 0 1 1.107 0l7.75 7.508a1 1 0 0 0 1.393-1.437L11.916.74C11.372.23 10.646 0 10 0zM3.029 10.996a1 1 0 0 0-1 1v5c0 1.645 1.355 3 3 3h10c1.645 0 3-1.355 3-3v-5a1 1 0 0 0-1-1 1 1 0 0 0-1 1v5c0 .572-.429 1-1 1h-10c-.571 0-1-.428-1-1v-5a1 1 0 0 0-1-1z" fill="#ffffff" opacity="1" data-original="#000000" class=""></path></g></g></svg>