<?xml version="1.0" encoding="UTF-8"?>
<svg id="DP-rest-menu-logo" xmlns="http://www.w3.org/2000/svg" version="1.1" viewBox="0 0 397.3 88.1">
  <defs>
    <style>
      .cls-1 {
        fill: #fff;
        stroke-width: 0px;
      }
    </style>
  </defs>
  <g id="icono">
    <path class="cls-1" d="M60.6,14.8H14.8c-.9,0-1.6.7-1.6,1.6s.7,1.6,1.6,1.6h45.8c.9,0,1.6.7,1.6,1.6v63.9c0,.9-.7,1.6-1.6,1.6H4.7c-.9,0-1.6-.7-1.6-1.6V18.3c0-2.2,1.5-4.1,3.7-4.6L52,3.2c.8-.2,1.7.3,1.9,1.2v6.5c0,.9.7,1.6,1.6,1.6s1.5-.7,1.6-1.6v-6.1c0-2.7-2.2-4.8-4.8-4.8s-.7,0-1,.1L6.1,10.6c-3.6.8-6.1,4-6.1,7.7v65.1c0,2.6,2.1,4.7,4.7,4.7h55.9c2.6,0,4.7-2.1,4.7-4.7V19.5c0-2.6-2.1-4.7-4.7-4.7Z"/>
    <path class="cls-1" d="M13.6,24.3c-.9,0-1.6.7-1.6,1.6v13.8c0,.7.2,1.5.6,2.1l3.7,5.8c.4.6.6,1.4.5,2.1l-2.1,22.4c-.4,8.8,12.7,8.9,12.3,0l-2.1-22.4c0-.7.1-1.5.5-2.1l3.7-5.8c.4-.6.6-1.3.6-2.1v-13.8c0-.9-.7-1.6-1.6-1.6s-1.6.7-1.6,1.6v13.8c0,0,0,.3-.1.4l-3.7,5.8c-.8,1.2-1.1,2.7-1,4.1l2.1,22.4c.1,1.7-1.1,3.1-2.8,3.2-1.7,0-3.1-1.1-3.2-2.8v-.5l2.1-22.4c.1-1.4-.2-2.9-1-4.1l-3.7-5.8c0,0-.1-.3-.1-.4v-13.8c0-.9-.7-1.6-1.6-1.6h.1Z"/>
    <path class="cls-1" d="M20,37.5v-11.6c0-.9-.7-1.6-1.6-1.6s-1.5.7-1.6,1.6v11.6c0,.9.7,1.6,1.6,1.6s1.5-.7,1.6-1.6Z"/>
    <path class="cls-1" d="M25,37.5v-11.6c0-.9-.7-1.6-1.6-1.6s-1.5.7-1.6,1.6v11.6c0,.9.7,1.6,1.6,1.6s1.5-.7,1.6-1.6Z"/>
    <path class="cls-1" d="M39,29.8c1.4-2.4,4.5-3.3,7-2.1.8.4,1.7,0,2.1-.7.4-.8,0-1.7-.7-2.1-4-2-8.9-.5-11.2,3.4-3.7,6.6-2.5,14.9,3.1,20l-2,21.8c-.3,2.8.7,5.5,2.7,7.4,4.7,4.3,10.2-1.4,10-6.6v-.9l-2-21.9c4.8-4.5,6.4-11.4,4.2-17.5-.3-.8-1.2-1.2-2-.9-.8.3-1.2,1.2-.9,2,1.8,4.9.5,10.4-3.3,14-.8.7-1.2,1.7-1.1,2.8l2,21.8v.6c0,2.3-2,6.4-4.6,4.3-1.3-1.3-2-3.1-1.8-4.9l2-21.8c0-1-.3-2-1.1-2.7-4.4-4.1-5.4-10.8-2.4-16h0Z"/>
  </g>
  <g id="DP">
    <g id="D">
      <path class="cls-1" d="M157.5,83.1h-32.9c-8.3,0-15.6-1.6-22-4.9s-11.4-7.9-14.9-13.8-5.2-12.7-5.2-20.3,1.8-14.4,5.3-20.4c3.5-5.9,8.5-10.5,14.8-13.8,6.4-3.3,13.7-4.9,22-4.9h32.9v78.1ZM146.4,73.4V14.7h-21.1c-6.3,0-11.9,1.2-16.7,3.7s-8.5,5.9-11.1,10.3c-2.6,4.5-3.9,9.6-3.9,15.4s1.3,10.9,3.9,15.3c2.6,4.4,6.3,7.9,11.1,10.3,4.8,2.5,10.4,3.7,16.7,3.7,0,0,21.1,0,21.1,0Z"/>
    </g>
    <g id="P">
      <path class="cls-1" d="M215.2,12.3c5.8,4.8,8.7,11.5,8.7,20s-2.9,15.1-8.7,20c-5.8,4.8-13.8,7.2-23.9,7.2h-19.3v23.6h-11.1V5h30.4c10.1,0,18.1,2.5,23.9,7.3h0ZM207.1,45.3c3.7-3,5.6-7.3,5.6-13s-1.9-10-5.6-13c-3.7-3-9.1-4.5-16.2-4.5h-19v35h19c7.1,0,12.5-1.5,16.2-4.5Z"/>
    </g>
  </g>
  <g>
    <path class="cls-1" d="M262.8,40.1l-7.9-11.2c-.7,0-1.5.1-2.3.1h-9v11.1h-5.2V3.5h14.3c9.5,0,15.3,4.8,15.3,12.8s-2.9,9.7-8,11.5l8.7,12.3h-5.9ZM262.7,16.2c0-5.2-3.5-8.2-10.2-8.2h-8.9v16.5h8.9c6.7,0,10.2-3,10.2-8.3Z"/>
    <path class="cls-1" d="M312.6,35.5v4.5h-26.5V3.5h25.8v4.5h-20.6v11.2h18.3v4.4h-18.3v11.8h21.3Z"/>
    <path class="cls-1" d="M327.5,35.9l1.9-4.1c2.7,2.5,7.4,4.2,12.1,4.2s9-2.5,9-5.6c0-8.9-22.2-3.3-22.2-16.9s4.4-10.5,14-10.5,8.7,1.1,11.8,3.2l-1.7,4.2c-3.2-2-6.8-3-10-3-6.2,0-8.9,2.6-8.9,5.8,0,8.9,22.2,3.3,22.2,16.8s-4.5,10.4-14.2,10.4-11.1-1.9-14-4.6h0Z"/>
    <path class="cls-1" d="M379.8,8h-12.5V3.5h30.3v4.5h-12.5v32h-5.2V8h0Z"/>
    <path class="cls-1" d="M270.5,84.4v-22l-10.8,18.1h-3.8l-10.7-17.6v21.5h-7.9v-36.6h7l13.7,22.7,13.5-22.7h7v36.6c.1,0-7.8,0-7.8,0h-.2Z"/>
    <path class="cls-1" d="M315.5,77.6v6.8h-28.3v-36.6h27.6v6.8h-19.2v7.9h17v6.6h-17v8.5s19.9,0,19.9,0Z"/>
    <path class="cls-1" d="M355.8,47.8v36.6h-7l-18.2-22.2v22.2h-8.4v-36.6h7l18.2,22.2v-22.2h8.4Z"/>
    <path class="cls-1" d="M364.1,68.3v-20.5h8.5v20.2c0,7,3,9.8,8.2,9.8s8.2-2.9,8.2-9.8v-20.2h8.4v20.5c0,10.8-6.2,16.7-16.6,16.7s-16.6-6-16.6-16.7h-.1Z"/>
  </g>
</svg>