<?xml version="1.0" encoding="UTF-8"?>
<svg id="DP-rest-menu-logo" xmlns="http://www.w3.org/2000/svg" version="1.1" viewBox="0 0 65.3 88.1">
  <defs>
    <style>
      .cls-1 {
        fill: #000;
        stroke-width: 0px;
      }
    </style>
  </defs>
  <g id="icono">
    <path class="cls-1" d="M60.6,14.8H14.8c-.9,0-1.6.7-1.6,1.6s.7,1.6,1.6,1.6h45.8c.9,0,1.6.7,1.6,1.6v63.9c0,.9-.7,1.6-1.6,1.6H4.7c-.9,0-1.6-.7-1.6-1.6V18.3c0-2.2,1.5-4.1,3.7-4.6L52,3.2c.8-.2,1.7.3,1.9,1.2v6.5c0,.9.7,1.6,1.6,1.6s1.5-.7,1.6-1.6v-6.1c0-2.7-2.2-4.8-4.8-4.8s-.7,0-1,.1L6.1,10.6c-3.6.8-6.1,4-6.1,7.7v65.1c0,2.6,2.1,4.7,4.7,4.7h55.9c2.6,0,4.7-2.1,4.7-4.7V19.5c0-2.6-2.1-4.7-4.7-4.7Z"/>
    <path class="cls-1" d="M13.6,24.3c-.9,0-1.6.7-1.6,1.6v13.8c0,.7.2,1.5.6,2.1l3.7,5.8c.4.6.6,1.4.5,2.1l-2.1,22.4c-.4,8.8,12.7,8.9,12.3,0l-2.1-22.4c0-.7.1-1.5.5-2.1l3.7-5.8c.4-.6.6-1.3.6-2.1v-13.8c0-.9-.7-1.6-1.6-1.6s-1.6.7-1.6,1.6v13.8c0,0,0,.3-.1.4l-3.7,5.8c-.8,1.2-1.1,2.7-1,4.1l2.1,22.4c.1,1.7-1.1,3.1-2.8,3.2-1.7,0-3.1-1.1-3.2-2.8v-.5l2.1-22.4c.1-1.4-.2-2.9-1-4.1l-3.7-5.8c0,0-.1-.3-.1-.4v-13.8c0-.9-.7-1.6-1.6-1.6h.1Z"/>
    <path class="cls-1" d="M20,37.5v-11.6c0-.9-.7-1.6-1.6-1.6s-1.5.7-1.6,1.6v11.6c0,.9.7,1.6,1.6,1.6s1.5-.7,1.6-1.6Z"/>
    <path class="cls-1" d="M25,37.5v-11.6c0-.9-.7-1.6-1.6-1.6s-1.5.7-1.6,1.6v11.6c0,.9.7,1.6,1.6,1.6s1.5-.7,1.6-1.6Z"/>
    <path class="cls-1" d="M39,29.8c1.4-2.4,4.5-3.3,7-2.1.8.4,1.7,0,2.1-.7.4-.8,0-1.7-.7-2.1-4-2-8.9-.5-11.2,3.4-3.7,6.6-2.5,14.9,3.1,20l-2,21.8c-.3,2.8.7,5.5,2.7,7.4,4.7,4.3,10.2-1.4,10-6.6v-.9l-2-21.9c4.8-4.5,6.4-11.4,4.2-17.5-.3-.8-1.2-1.2-2-.9-.8.3-1.2,1.2-.9,2,1.8,4.9.5,10.4-3.3,14-.8.7-1.2,1.7-1.1,2.8l2,21.8v.6c0,2.3-2,6.4-4.6,4.3-1.3-1.3-2-3.1-1.8-4.9l2-21.8c0-1-.3-2-1.1-2.7-4.4-4.1-5.4-10.8-2.4-16h0Z"/>
  </g>
</svg>