<?xml version="1.0" encoding="UTF-8"?>
<svg id="Capa_1" data-name="Capa 1" xmlns="http://www.w3.org/2000/svg" version="1.1" viewBox="0 0 384 501.3">
  <defs>
    <style>
      .cls-1 {
        fill: #fff;
        stroke-width: 0px;
      }
    </style>
  </defs>
  <path class="cls-1" d="M364.8,501.3H19.2c-10.7,0-19.2-8.5-19.2-19.2V49.1c0-10.7,8.5-19.2,19.2-19.2h345.6c10.7,0,19.2,8.5,19.2,19.2v432c0,11.7-8.5,20.3-19.2,20.3ZM38.4,461.9h306.1V69.3H38.4v392.5Z"/>
  <path class="cls-1" d="M102.4,94.9c-10.7,0-19.2-8.5-19.2-19.2V19.2c0-10.7,8.5-19.2,19.2-19.2s19.2,8.5,19.2,19.2v55.5c0,11.7-8.5,20.3-19.2,20.3h0ZM192,94.9c-10.7,0-19.2-8.5-19.2-19.2V19.2c0-10.7,8.5-19.2,19.2-19.2s19.2,8.5,19.2,19.2v55.5c0,11.7-8.5,20.3-19.2,20.3ZM281.6,94.9c-10.7,0-19.2-8.5-19.2-19.2V19.2c0-10.7,8.5-19.2,19.2-19.2s19.2,8.5,19.2,19.2v55.5c1.1,11.7-7.5,20.3-19.2,20.3ZM281.6,226.1H102.4c-10.7,0-19.2-8.5-19.2-19.2s8.5-19.2,19.2-19.2h180.3c10.7,0,19.2,8.5,19.2,19.2s-8.5,19.2-20.3,19.2h0ZM281.6,344.5H102.4c-10.7,0-19.2-8.5-19.2-19.2s8.5-19.2,19.2-19.2h180.3c10.7,0,19.2,8.5,19.2,19.2s-8.5,19.2-20.3,19.2h0Z"/>
</svg>